<svg width="1000px" height="1151px"
 viewBox="0.00 0.00 1027.62 1182.60" xmlns="http://www.w3.org/2000/svg" xmlns:xlink="http://www.w3.org/1999/xlink">
<g id="graph0" class="graph" transform="scale(1.0 1.0) rotate(0.0) translate(4.0 1178.6)">
<title>G</title>
<polygon fill="white" stroke="transparent" points="-4,4 -4,-1178.6 1023.62,-1178.6 1023.62,4 -4,4"/>
<!-- 0 -->
<g id="node1" class="node">
<title>0</title>
<g id="a_node1"><a xlink:href="file:./labels.html#0" xlink:title="z0" target="_blank">
<ellipse fill="none" stroke="black" cx="67.88" cy="-1156.6" rx="27" ry="18"/>
<text text-anchor="middle" x="67.88" y="-1152.4" font-family="Times,serif" font-size="14.00">z0</text>
</a>
</g>
</g>
<!-- 1 -->
<g id="node2" class="node">
<title>1</title>
<g id="a_node2"><a xlink:href="file:./labels.html#1" xlink:title="z0" target="_blank">
<ellipse fill="none" stroke="black" cx="32.88" cy="-1067.8" rx="27" ry="18"/>
<text text-anchor="middle" x="32.88" y="-1063.6" font-family="Times,serif" font-size="14.00">z0</text>
</a>
</g>
</g>
<!-- 0&#45;&gt;1 -->
<g id="edge1" class="edge">
<title>0&#45;&gt;1</title>
<path fill="none" stroke="black" d="M61.13,-1138.86C56.09,-1126.38 49.12,-1109.08 43.36,-1094.8"/>
<polygon fill="black" stroke="black" points="46.59,-1093.45 39.61,-1085.48 40.1,-1096.07 46.59,-1093.45"/>
<text text-anchor="middle" x="60.88" y="-1108" font-family="Times,serif" font-size="14.00">⊥</text>
</g>
<!-- 3 -->
<g id="node4" class="node">
<title>3</title>
<g id="a_node4"><a xlink:href="file:./labels.html#3" xlink:title="z0" target="_blank">
<ellipse fill="none" stroke="black" cx="106.88" cy="-1067.8" rx="27" ry="18"/>
<text text-anchor="middle" x="106.88" y="-1063.6" font-family="Times,serif" font-size="14.00">z0</text>
</a>
</g>
</g>
<!-- 0&#45;&gt;3 -->
<g id="edge2" class="edge">
<title>0&#45;&gt;3</title>
<path fill="none" stroke="black" d="M75.21,-1139.27C80.84,-1126.74 88.72,-1109.2 95.22,-1094.76"/>
<polygon fill="black" stroke="black" points="98.54,-1095.9 99.44,-1085.35 92.15,-1093.04 98.54,-1095.9"/>
<text text-anchor="middle" x="176.03" y="-1108" font-family="Times,serif" font-size="14.00">∀haComponente.Componente</text>
</g>
<!-- 2 -->
<g id="node3" class="node">
<title>2</title>
<g id="a_node3"><a xlink:href="file:./labels.html#2" xlink:title="clash" target="_blank">
<ellipse fill="none" stroke="black" cx="30.88" cy="-979" rx="30.76" ry="18"/>
<text text-anchor="middle" x="30.88" y="-974.8" font-family="Times,serif" font-size="14.00">clash</text>
</a>
</g>
</g>
<!-- 1&#45;&gt;2 -->
<g id="edge3" class="edge">
<title>1&#45;&gt;2</title>
<path fill="none" stroke="black" d="M32.48,-1049.65C32.2,-1037.52 31.82,-1021.02 31.5,-1007.12"/>
<polygon fill="black" stroke="black" points="35,-1007.03 31.27,-997.11 28,-1007.19 35,-1007.03"/>
</g>
<!-- 4 -->
<g id="node5" class="node">
<title>4</title>
<g id="a_node5"><a xlink:href="file:./labels.html#4" xlink:title="z0" target="_blank">
<ellipse fill="none" stroke="black" cx="106.88" cy="-979" rx="27" ry="18"/>
<text text-anchor="middle" x="106.88" y="-974.8" font-family="Times,serif" font-size="14.00">z0</text>
</a>
</g>
</g>
<!-- 3&#45;&gt;4 -->
<g id="edge4" class="edge">
<title>3&#45;&gt;4</title>
<path fill="none" stroke="black" d="M106.88,-1049.65C106.88,-1037.52 106.88,-1021.02 106.88,-1007.12"/>
<polygon fill="black" stroke="black" points="110.38,-1007.11 106.88,-997.11 103.38,-1007.11 110.38,-1007.11"/>
<text text-anchor="middle" x="113.88" y="-1019.2" font-family="Times,serif" font-size="14.00">⊥</text>
</g>
<!-- 6 -->
<g id="node7" class="node">
<title>6</title>
<g id="a_node7"><a xlink:href="file:./labels.html#6" xlink:title="z0" target="_blank">
<ellipse fill="none" stroke="black" cx="180.88" cy="-979" rx="27" ry="18"/>
<text text-anchor="middle" x="180.88" y="-974.8" font-family="Times,serif" font-size="14.00">z0</text>
</a>
</g>
</g>
<!-- 3&#45;&gt;6 -->
<g id="edge5" class="edge">
<title>3&#45;&gt;6</title>
<path fill="none" stroke="black" d="M119.77,-1051.68C131.23,-1038.24 148.15,-1018.38 161.29,-1002.98"/>
<polygon fill="black" stroke="black" points="164.31,-1004.83 168.14,-994.95 158.98,-1000.29 164.31,-1004.83"/>
<text text-anchor="middle" x="221.25" y="-1019.2" font-family="Times,serif" font-size="14.00">∀componenteDi.Veicolo</text>
</g>
<!-- 5 -->
<g id="node6" class="node">
<title>5</title>
<g id="a_node6"><a xlink:href="file:./labels.html#5" xlink:title="clash" target="_blank">
<ellipse fill="none" stroke="black" cx="104.88" cy="-890.2" rx="30.76" ry="18"/>
<text text-anchor="middle" x="104.88" y="-886" font-family="Times,serif" font-size="14.00">clash</text>
</a>
</g>
</g>
<!-- 4&#45;&gt;5 -->
<g id="edge6" class="edge">
<title>4&#45;&gt;5</title>
<path fill="none" stroke="black" d="M106.48,-960.85C106.2,-948.72 105.82,-932.22 105.5,-918.32"/>
<polygon fill="black" stroke="black" points="109,-918.23 105.27,-908.31 102,-918.39 109,-918.23"/>
</g>
<!-- 7 -->
<g id="node8" class="node">
<title>7</title>
<g id="a_node8"><a xlink:href="file:./labels.html#7" xlink:title="z1" target="_blank">
<ellipse fill="none" stroke="black" cx="180.88" cy="-890.2" rx="27" ry="18"/>
<text text-anchor="middle" x="180.88" y="-886" font-family="Times,serif" font-size="14.00">z1</text>
</a>
</g>
</g>
<!-- 6&#45;&gt;7 -->
<g id="edge7" class="edge">
<title>6&#45;&gt;7</title>
<path fill="none" stroke="black" d="M180.88,-960.85C180.88,-948.72 180.88,-932.22 180.88,-918.32"/>
<polygon fill="black" stroke="black" points="184.38,-918.31 180.88,-908.31 177.38,-918.31 184.38,-918.31"/>
<text text-anchor="middle" x="223.26" y="-930.4" font-family="Times,serif" font-size="14.00">haComponente</text>
</g>
<!-- 25 -->
<g id="node26" class="node">
<title>25</title>
<g id="a_node26"><a xlink:href="file:./labels.html#25" xlink:title="z5" target="_blank">
<ellipse fill="none" stroke="black" cx="377.88" cy="-890.2" rx="27" ry="18"/>
<text text-anchor="middle" x="377.88" y="-886" font-family="Times,serif" font-size="14.00">z5</text>
</a>
</g>
</g>
<!-- 6&#45;&gt;25 -->
<g id="edge8" class="edge">
<title>6&#45;&gt;25</title>
<path fill="none" stroke="black" d="M204.12,-969.39C222.19,-962.57 247.81,-952.62 269.88,-943 296.61,-931.35 326.47,-916.92 348,-906.25"/>
<polygon fill="black" stroke="black" points="349.59,-909.37 356.98,-901.78 346.47,-903.1 349.59,-909.37"/>
<text text-anchor="middle" x="348.26" y="-930.4" font-family="Times,serif" font-size="14.00">haComponente</text>
</g>
<!-- 8 -->
<g id="node9" class="node">
<title>8</title>
<g id="a_node9"><a xlink:href="file:./labels.html#8" xlink:title="z1" target="_blank">
<ellipse fill="none" stroke="black" cx="105.88" cy="-801.4" rx="27" ry="18"/>
<text text-anchor="middle" x="105.88" y="-797.2" font-family="Times,serif" font-size="14.00">z1</text>
</a>
</g>
</g>
<!-- 7&#45;&gt;8 -->
<g id="edge9" class="edge">
<title>7&#45;&gt;8</title>
<path fill="none" stroke="black" d="M167.81,-874.08C156.09,-860.51 138.73,-840.42 125.36,-824.95"/>
<polygon fill="black" stroke="black" points="127.98,-822.62 118.79,-817.35 122.68,-827.2 127.98,-822.62"/>
<text text-anchor="middle" x="157.88" y="-841.6" font-family="Times,serif" font-size="14.00">⊥</text>
</g>
<!-- 10 -->
<g id="node11" class="node">
<title>10</title>
<g id="a_node11"><a xlink:href="file:./labels.html#10" xlink:title="z1" target="_blank">
<ellipse fill="none" stroke="black" cx="180.88" cy="-801.4" rx="27" ry="18"/>
<text text-anchor="middle" x="180.88" y="-797.2" font-family="Times,serif" font-size="14.00">z1</text>
</a>
</g>
</g>
<!-- 7&#45;&gt;10 -->
<g id="edge10" class="edge">
<title>7&#45;&gt;10</title>
<path fill="none" stroke="black" d="M180.88,-872.05C180.88,-859.92 180.88,-843.42 180.88,-829.52"/>
<polygon fill="black" stroke="black" points="184.38,-829.51 180.88,-819.51 177.38,-829.51 184.38,-829.51"/>
<text text-anchor="middle" x="266.03" y="-841.6" font-family="Times,serif" font-size="14.00">∀haComponente.Componente</text>
</g>
<!-- 9 -->
<g id="node10" class="node">
<title>9</title>
<g id="a_node10"><a xlink:href="file:./labels.html#9" xlink:title="clash" target="_blank">
<ellipse fill="none" stroke="black" cx="102.88" cy="-712.6" rx="30.76" ry="18"/>
<text text-anchor="middle" x="102.88" y="-708.4" font-family="Times,serif" font-size="14.00">clash</text>
</a>
</g>
</g>
<!-- 8&#45;&gt;9 -->
<g id="edge11" class="edge">
<title>8&#45;&gt;9</title>
<path fill="none" stroke="black" d="M105.28,-783.25C104.87,-771.12 104.3,-754.62 103.81,-740.72"/>
<polygon fill="black" stroke="black" points="107.31,-740.59 103.47,-730.71 100.32,-740.83 107.31,-740.59"/>
</g>
<!-- 11 -->
<g id="node12" class="node">
<title>11</title>
<g id="a_node12"><a xlink:href="file:./labels.html#11" xlink:title="z1" target="_blank">
<ellipse fill="none" stroke="black" cx="178.88" cy="-712.6" rx="27" ry="18"/>
<text text-anchor="middle" x="178.88" y="-708.4" font-family="Times,serif" font-size="14.00">z1</text>
</a>
</g>
</g>
<!-- 10&#45;&gt;11 -->
<g id="edge12" class="edge">
<title>10&#45;&gt;11</title>
<path fill="none" stroke="black" d="M180.48,-783.25C180.2,-771.12 179.82,-754.62 179.5,-740.72"/>
<polygon fill="black" stroke="black" points="183,-740.63 179.27,-730.71 176,-740.79 183,-740.63"/>
<text text-anchor="middle" x="187.88" y="-752.8" font-family="Times,serif" font-size="14.00">⊥</text>
</g>
<!-- 13 -->
<g id="node14" class="node">
<title>13</title>
<g id="a_node14"><a xlink:href="file:./labels.html#13" xlink:title="z1" target="_blank">
<ellipse fill="none" stroke="black" cx="250.88" cy="-712.6" rx="27" ry="18"/>
<text text-anchor="middle" x="250.88" y="-708.4" font-family="Times,serif" font-size="14.00">z1</text>
</a>
</g>
</g>
<!-- 10&#45;&gt;13 -->
<g id="edge13" class="edge">
<title>10&#45;&gt;13</title>
<path fill="none" stroke="black" d="M193.07,-785.28C203.85,-771.92 219.73,-752.23 232.12,-736.86"/>
<polygon fill="black" stroke="black" points="235.04,-738.82 238.59,-728.84 229.59,-734.42 235.04,-738.82"/>
<text text-anchor="middle" x="293.25" y="-752.8" font-family="Times,serif" font-size="14.00">∀componenteDi.Veicolo</text>
</g>
<!-- 12 -->
<g id="node13" class="node">
<title>12</title>
<g id="a_node13"><a xlink:href="file:./labels.html#12" xlink:title="clash" target="_blank">
<ellipse fill="none" stroke="black" cx="173.88" cy="-623.8" rx="30.76" ry="18"/>
<text text-anchor="middle" x="173.88" y="-619.6" font-family="Times,serif" font-size="14.00">clash</text>
</a>
</g>
</g>
<!-- 11&#45;&gt;12 -->
<g id="edge14" class="edge">
<title>11&#45;&gt;12</title>
<path fill="none" stroke="black" d="M177.89,-694.45C177.19,-682.32 176.24,-665.82 175.44,-651.92"/>
<polygon fill="black" stroke="black" points="178.93,-651.7 174.86,-641.91 171.94,-652.1 178.93,-651.7"/>
</g>
<!-- 14 -->
<g id="node15" class="node">
<title>14</title>
<g id="a_node15"><a xlink:href="file:./labels.html#14" xlink:title="z2" target="_blank">
<ellipse fill="none" stroke="black" cx="249.88" cy="-623.8" rx="27" ry="18"/>
<text text-anchor="middle" x="249.88" y="-619.6" font-family="Times,serif" font-size="14.00">z2</text>
</a>
</g>
</g>
<!-- 13&#45;&gt;14 -->
<g id="edge15" class="edge">
<title>13&#45;&gt;14</title>
<path fill="none" stroke="black" d="M250.67,-694.51C250.6,-688.81 250.52,-682.43 250.46,-676.6 250.36,-668.69 250.27,-660.09 250.18,-652.22"/>
<polygon fill="black" stroke="black" points="253.68,-652.03 250.07,-642.07 246.68,-652.1 253.68,-652.03"/>
<text text-anchor="middle" x="292.09" y="-664" font-family="Times,serif" font-size="14.00">componenteDi</text>
</g>
<!-- 16 -->
<g id="node17" class="node">
<title>16</title>
<g id="a_node17"><a xlink:href="file:./labels.html#16" xlink:title="z3" target="_blank">
<ellipse fill="none" stroke="black" cx="354.88" cy="-623.8" rx="27" ry="18"/>
<text text-anchor="middle" x="354.88" y="-619.6" font-family="Times,serif" font-size="14.00">z3</text>
</a>
</g>
</g>
<!-- 13&#45;&gt;16 -->
<g id="edge16" class="edge">
<title>13&#45;&gt;16</title>
<path fill="none" stroke="black" d="M276.32,-706.11C294.15,-701.1 317.46,-692.05 332.88,-676.6 339.7,-669.77 344.53,-660.49 347.89,-651.68"/>
<polygon fill="black" stroke="black" points="351.25,-652.67 351.1,-642.08 344.61,-650.46 351.25,-652.67"/>
<text text-anchor="middle" x="386.09" y="-664" font-family="Times,serif" font-size="14.00">componenteDi</text>
</g>
<!-- 15 -->
<g id="node16" class="node">
<title>15</title>
<g id="a_node16"><a xlink:href="file:./labels.html#15" xlink:title="Blocking" target="_blank">
<ellipse fill="none" stroke="black" cx="237.88" cy="-535" rx="46.39" ry="18"/>
<text text-anchor="middle" x="237.88" y="-530.8" font-family="Times,serif" font-size="14.00">Blocking</text>
</a>
</g>
</g>
<!-- 14&#45;&gt;15 -->
<g id="edge17" class="edge">
<title>14&#45;&gt;15</title>
<path fill="none" stroke="black" d="M247.51,-605.65C245.83,-593.52 243.55,-577.02 241.63,-563.12"/>
<polygon fill="black" stroke="black" points="245.08,-562.54 240.24,-553.11 238.15,-563.5 245.08,-562.54"/>
</g>
<!-- 17 -->
<g id="node18" class="node">
<title>17</title>
<g id="a_node18"><a xlink:href="file:./labels.html#17" xlink:title="z3" target="_blank">
<ellipse fill="none" stroke="black" cx="328.88" cy="-535" rx="27" ry="18"/>
<text text-anchor="middle" x="328.88" y="-530.8" font-family="Times,serif" font-size="14.00">z3</text>
</a>
</g>
</g>
<!-- 16&#45;&gt;17 -->
<g id="edge18" class="edge">
<title>16&#45;&gt;17</title>
<path fill="none" stroke="black" d="M341.22,-607.89C336.73,-602.06 332.27,-595.03 329.88,-587.8 327.32,-580.08 326.45,-571.36 326.38,-563.3"/>
<polygon fill="black" stroke="black" points="329.88,-563.33 326.69,-553.23 322.89,-563.11 329.88,-563.33"/>
<text text-anchor="middle" x="336.88" y="-575.2" font-family="Times,serif" font-size="14.00">⊥</text>
</g>
<!-- 19 -->
<g id="node20" class="node">
<title>19</title>
<g id="a_node20"><a xlink:href="file:./labels.html#19" xlink:title="z3" target="_blank">
<ellipse fill="none" stroke="black" cx="402.88" cy="-535" rx="27" ry="18"/>
<text text-anchor="middle" x="402.88" y="-530.8" font-family="Times,serif" font-size="14.00">z3</text>
</a>
</g>
</g>
<!-- 16&#45;&gt;19 -->
<g id="edge19" class="edge">
<title>16&#45;&gt;19</title>
<path fill="none" stroke="black" d="M359.36,-605.81C362.51,-595.37 367.28,-581.94 373.57,-571 376.05,-566.68 379.09,-562.36 382.25,-558.32"/>
<polygon fill="black" stroke="black" points="385.08,-560.39 388.79,-550.47 379.7,-555.91 385.08,-560.39"/>
<text text-anchor="middle" x="459.03" y="-575.2" font-family="Times,serif" font-size="14.00">∀haComponente.Componente</text>
</g>
<!-- 18 -->
<g id="node19" class="node">
<title>18</title>
<g id="a_node19"><a xlink:href="file:./labels.html#18" xlink:title="clash" target="_blank">
<ellipse fill="none" stroke="black" cx="326.88" cy="-446.2" rx="30.76" ry="18"/>
<text text-anchor="middle" x="326.88" y="-442" font-family="Times,serif" font-size="14.00">clash</text>
</a>
</g>
</g>
<!-- 17&#45;&gt;18 -->
<g id="edge20" class="edge">
<title>17&#45;&gt;18</title>
<path fill="none" stroke="black" d="M328.48,-516.85C328.2,-504.72 327.82,-488.22 327.5,-474.32"/>
<polygon fill="black" stroke="black" points="331,-474.23 327.27,-464.31 324,-474.39 331,-474.23"/>
</g>
<!-- 20 -->
<g id="node21" class="node">
<title>20</title>
<g id="a_node21"><a xlink:href="file:./labels.html#20" xlink:title="z3" target="_blank">
<ellipse fill="none" stroke="black" cx="402.88" cy="-446.2" rx="27" ry="18"/>
<text text-anchor="middle" x="402.88" y="-442" font-family="Times,serif" font-size="14.00">z3</text>
</a>
</g>
</g>
<!-- 19&#45;&gt;20 -->
<g id="edge21" class="edge">
<title>19&#45;&gt;20</title>
<path fill="none" stroke="black" d="M402.88,-516.85C402.88,-504.72 402.88,-488.22 402.88,-474.32"/>
<polygon fill="black" stroke="black" points="406.38,-474.31 402.88,-464.31 399.38,-474.31 406.38,-474.31"/>
<text text-anchor="middle" x="409.88" y="-486.4" font-family="Times,serif" font-size="14.00">⊥</text>
</g>
<!-- 22 -->
<g id="node23" class="node">
<title>22</title>
<g id="a_node23"><a xlink:href="file:./labels.html#22" xlink:title="z3" target="_blank">
<ellipse fill="none" stroke="black" cx="475.88" cy="-446.2" rx="27" ry="18"/>
<text text-anchor="middle" x="475.88" y="-442" font-family="Times,serif" font-size="14.00">z3</text>
</a>
</g>
</g>
<!-- 19&#45;&gt;22 -->
<g id="edge22" class="edge">
<title>19&#45;&gt;22</title>
<path fill="none" stroke="black" d="M415.59,-518.88C426.9,-505.44 443.6,-485.58 456.55,-470.18"/>
<polygon fill="black" stroke="black" points="459.55,-472.05 463.31,-462.15 454.19,-467.55 459.55,-472.05"/>
<text text-anchor="middle" x="517.25" y="-486.4" font-family="Times,serif" font-size="14.00">∀componenteDi.Veicolo</text>
</g>
<!-- 21 -->
<g id="node22" class="node">
<title>21</title>
<g id="a_node22"><a xlink:href="file:./labels.html#21" xlink:title="clash" target="_blank">
<ellipse fill="none" stroke="black" cx="401.88" cy="-357.4" rx="30.76" ry="18"/>
<text text-anchor="middle" x="401.88" y="-353.2" font-family="Times,serif" font-size="14.00">clash</text>
</a>
</g>
</g>
<!-- 20&#45;&gt;21 -->
<g id="edge23" class="edge">
<title>20&#45;&gt;21</title>
<path fill="none" stroke="black" d="M402.68,-428.05C402.54,-415.92 402.35,-399.42 402.19,-385.52"/>
<polygon fill="black" stroke="black" points="405.69,-385.47 402.07,-375.51 398.69,-385.55 405.69,-385.47"/>
</g>
<!-- 23 -->
<g id="node24" class="node">
<title>23</title>
<g id="a_node24"><a xlink:href="file:./labels.html#23" xlink:title="z4" target="_blank">
<ellipse fill="none" stroke="black" cx="477.88" cy="-357.4" rx="27" ry="18"/>
<text text-anchor="middle" x="477.88" y="-353.2" font-family="Times,serif" font-size="14.00">z4</text>
</a>
</g>
</g>
<!-- 22&#45;&gt;23 -->
<g id="edge24" class="edge">
<title>22&#45;&gt;23</title>
<path fill="none" stroke="black" d="M476.27,-428.05C476.55,-415.92 476.93,-399.42 477.25,-385.52"/>
<polygon fill="black" stroke="black" points="480.75,-385.59 477.48,-375.51 473.75,-385.43 480.75,-385.59"/>
<text text-anchor="middle" x="520.26" y="-397.6" font-family="Times,serif" font-size="14.00">haComponente</text>
</g>
<!-- 24 -->
<g id="node25" class="node">
<title>24</title>
<g id="a_node25"><a xlink:href="file:./labels.html#24" xlink:title="Blocking" target="_blank">
<ellipse fill="none" stroke="black" cx="477.88" cy="-268.6" rx="46.39" ry="18"/>
<text text-anchor="middle" x="477.88" y="-264.4" font-family="Times,serif" font-size="14.00">Blocking</text>
</a>
</g>
</g>
<!-- 23&#45;&gt;24 -->
<g id="edge25" class="edge">
<title>23&#45;&gt;24</title>
<path fill="none" stroke="black" d="M477.88,-339.25C477.88,-327.12 477.88,-310.62 477.88,-296.72"/>
<polygon fill="black" stroke="black" points="481.38,-296.71 477.88,-286.71 474.38,-296.71 481.38,-296.71"/>
</g>
<!-- 26 -->
<g id="node27" class="node">
<title>26</title>
<g id="a_node27"><a xlink:href="file:./labels.html#26" xlink:title="z5" target="_blank">
<ellipse fill="none" stroke="black" cx="377.88" cy="-801.4" rx="27" ry="18"/>
<text text-anchor="middle" x="377.88" y="-797.2" font-family="Times,serif" font-size="14.00">z5</text>
</a>
</g>
</g>
<!-- 25&#45;&gt;26 -->
<g id="edge26" class="edge">
<title>25&#45;&gt;26</title>
<path fill="none" stroke="black" d="M377.88,-872.05C377.88,-859.92 377.88,-843.42 377.88,-829.52"/>
<polygon fill="black" stroke="black" points="381.38,-829.51 377.88,-819.51 374.38,-829.51 381.38,-829.51"/>
<text text-anchor="middle" x="384.88" y="-841.6" font-family="Times,serif" font-size="14.00">⊥</text>
</g>
<!-- 28 -->
<g id="node29" class="node">
<title>28</title>
<g id="a_node29"><a xlink:href="file:./labels.html#28" xlink:title="z5" target="_blank">
<ellipse fill="none" stroke="black" cx="454.88" cy="-801.4" rx="27" ry="18"/>
<text text-anchor="middle" x="454.88" y="-797.2" font-family="Times,serif" font-size="14.00">z5</text>
</a>
</g>
</g>
<!-- 25&#45;&gt;28 -->
<g id="edge27" class="edge">
<title>25&#45;&gt;28</title>
<path fill="none" stroke="black" d="M391.29,-874.08C403.33,-860.51 421.15,-840.42 434.87,-824.95"/>
<polygon fill="black" stroke="black" points="437.6,-827.15 441.62,-817.35 432.36,-822.5 437.6,-827.15"/>
<text text-anchor="middle" x="509.03" y="-841.6" font-family="Times,serif" font-size="14.00">∀haComponente.Componente</text>
</g>
<!-- 27 -->
<g id="node28" class="node">
<title>27</title>
<g id="a_node28"><a xlink:href="file:./labels.html#27" xlink:title="clash" target="_blank">
<ellipse fill="none" stroke="black" cx="377.88" cy="-712.6" rx="30.76" ry="18"/>
<text text-anchor="middle" x="377.88" y="-708.4" font-family="Times,serif" font-size="14.00">clash</text>
</a>
</g>
</g>
<!-- 26&#45;&gt;27 -->
<g id="edge28" class="edge">
<title>26&#45;&gt;27</title>
<path fill="none" stroke="black" d="M377.88,-783.25C377.88,-771.12 377.88,-754.62 377.88,-740.72"/>
<polygon fill="black" stroke="black" points="381.38,-740.71 377.88,-730.71 374.38,-740.71 381.38,-740.71"/>
</g>
<!-- 29 -->
<g id="node30" class="node">
<title>29</title>
<g id="a_node30"><a xlink:href="file:./labels.html#29" xlink:title="z5" target="_blank">
<ellipse fill="none" stroke="black" cx="454.88" cy="-712.6" rx="27" ry="18"/>
<text text-anchor="middle" x="454.88" y="-708.4" font-family="Times,serif" font-size="14.00">z5</text>
</a>
</g>
</g>
<!-- 28&#45;&gt;29 -->
<g id="edge29" class="edge">
<title>28&#45;&gt;29</title>
<path fill="none" stroke="black" d="M454.88,-783.25C454.88,-771.12 454.88,-754.62 454.88,-740.72"/>
<polygon fill="black" stroke="black" points="458.38,-740.71 454.88,-730.71 451.38,-740.71 458.38,-740.71"/>
<text text-anchor="middle" x="461.88" y="-752.8" font-family="Times,serif" font-size="14.00">⊥</text>
</g>
<!-- 31 -->
<g id="node32" class="node">
<title>31</title>
<g id="a_node32"><a xlink:href="file:./labels.html#31" xlink:title="z5" target="_blank">
<ellipse fill="none" stroke="black" cx="542.88" cy="-712.6" rx="27" ry="18"/>
<text text-anchor="middle" x="542.88" y="-708.4" font-family="Times,serif" font-size="14.00">z5</text>
</a>
</g>
</g>
<!-- 28&#45;&gt;31 -->
<g id="edge30" class="edge">
<title>28&#45;&gt;31</title>
<path fill="none" stroke="black" d="M469.41,-786.07C483.42,-772.25 504.81,-751.15 520.91,-735.27"/>
<polygon fill="black" stroke="black" points="523.66,-737.47 528.32,-727.95 518.75,-732.49 523.66,-737.47"/>
<text text-anchor="middle" x="577.25" y="-752.8" font-family="Times,serif" font-size="14.00">∀componenteDi.Veicolo</text>
</g>
<!-- 30 -->
<g id="node31" class="node">
<title>30</title>
<g id="a_node31"><a xlink:href="file:./labels.html#30" xlink:title="clash" target="_blank">
<ellipse fill="none" stroke="black" cx="454.88" cy="-623.8" rx="30.76" ry="18"/>
<text text-anchor="middle" x="454.88" y="-619.6" font-family="Times,serif" font-size="14.00">clash</text>
</a>
</g>
</g>
<!-- 29&#45;&gt;30 -->
<g id="edge31" class="edge">
<title>29&#45;&gt;30</title>
<path fill="none" stroke="black" d="M454.88,-694.45C454.88,-682.32 454.88,-665.82 454.88,-651.92"/>
<polygon fill="black" stroke="black" points="458.38,-651.91 454.88,-641.91 451.38,-651.91 458.38,-651.91"/>
</g>
<!-- 32 -->
<g id="node33" class="node">
<title>32</title>
<g id="a_node33"><a xlink:href="file:./labels.html#32" xlink:title="z6" target="_blank">
<ellipse fill="none" stroke="black" cx="544.88" cy="-623.8" rx="27" ry="18"/>
<text text-anchor="middle" x="544.88" y="-619.6" font-family="Times,serif" font-size="14.00">z6</text>
</a>
</g>
</g>
<!-- 31&#45;&gt;32 -->
<g id="edge32" class="edge">
<title>31&#45;&gt;32</title>
<path fill="none" stroke="black" d="M542.94,-694.33C543.01,-684.26 543.16,-671.31 543.46,-659.8 543.52,-657.25 543.6,-654.59 543.7,-651.93"/>
<polygon fill="black" stroke="black" points="547.2,-652.01 544.08,-641.89 540.2,-651.74 547.2,-652.01"/>
<text text-anchor="middle" x="585.09" y="-664" font-family="Times,serif" font-size="14.00">componenteDi</text>
</g>
<!-- 34 -->
<g id="node35" class="node">
<title>34</title>
<g id="a_node35"><a xlink:href="file:./labels.html#34" xlink:title="z7" target="_blank">
<ellipse fill="none" stroke="black" cx="647.88" cy="-623.8" rx="27" ry="18"/>
<text text-anchor="middle" x="647.88" y="-619.6" font-family="Times,serif" font-size="14.00">z7</text>
</a>
</g>
</g>
<!-- 31&#45;&gt;34 -->
<g id="edge33" class="edge">
<title>31&#45;&gt;34</title>
<path fill="none" stroke="black" d="M568.24,-706.29C586.34,-701.34 610.16,-692.28 625.88,-676.6 632.71,-669.78 637.55,-660.51 640.91,-651.69"/>
<polygon fill="black" stroke="black" points="644.27,-652.68 644.11,-642.09 637.63,-650.47 644.27,-652.68"/>
<text text-anchor="middle" x="679.09" y="-664" font-family="Times,serif" font-size="14.00">componenteDi</text>
</g>
<!-- 33 -->
<g id="node34" class="node">
<title>33</title>
<g id="a_node34"><a xlink:href="file:./labels.html#33" xlink:title="Blocking" target="_blank">
<ellipse fill="none" stroke="black" cx="550.88" cy="-535" rx="46.39" ry="18"/>
<text text-anchor="middle" x="550.88" y="-530.8" font-family="Times,serif" font-size="14.00">Blocking</text>
</a>
</g>
</g>
<!-- 32&#45;&gt;33 -->
<g id="edge34" class="edge">
<title>32&#45;&gt;33</title>
<path fill="none" stroke="black" d="M546.06,-605.65C546.9,-593.52 548.04,-577.02 549,-563.12"/>
<polygon fill="black" stroke="black" points="552.5,-563.33 549.69,-553.11 545.51,-562.85 552.5,-563.33"/>
</g>
<!-- 35 -->
<g id="node36" class="node">
<title>35</title>
<g id="a_node36"><a xlink:href="file:./labels.html#35" xlink:title="z7" target="_blank">
<ellipse fill="none" stroke="black" cx="645.88" cy="-535" rx="27" ry="18"/>
<text text-anchor="middle" x="645.88" y="-530.8" font-family="Times,serif" font-size="14.00">z7</text>
</a>
</g>
</g>
<!-- 34&#45;&gt;35 -->
<g id="edge35" class="edge">
<title>34&#45;&gt;35</title>
<path fill="none" stroke="black" d="M647.48,-605.65C647.2,-593.52 646.82,-577.02 646.5,-563.12"/>
<polygon fill="black" stroke="black" points="650,-563.03 646.27,-553.11 643,-563.19 650,-563.03"/>
<text text-anchor="middle" x="654.88" y="-575.2" font-family="Times,serif" font-size="14.00">⊥</text>
</g>
<!-- 37 -->
<g id="node38" class="node">
<title>37</title>
<g id="a_node38"><a xlink:href="file:./labels.html#37" xlink:title="z7" target="_blank">
<ellipse fill="none" stroke="black" cx="719.88" cy="-535" rx="27" ry="18"/>
<text text-anchor="middle" x="719.88" y="-530.8" font-family="Times,serif" font-size="14.00">z7</text>
</a>
</g>
</g>
<!-- 34&#45;&gt;37 -->
<g id="edge36" class="edge">
<title>34&#45;&gt;37</title>
<path fill="none" stroke="black" d="M660.42,-607.68C671.5,-594.32 687.84,-574.63 700.58,-559.26"/>
<polygon fill="black" stroke="black" points="703.55,-561.17 707.24,-551.24 698.16,-556.7 703.55,-561.17"/>
<text text-anchor="middle" x="776.03" y="-575.2" font-family="Times,serif" font-size="14.00">∀haComponente.Componente</text>
</g>
<!-- 36 -->
<g id="node37" class="node">
<title>36</title>
<g id="a_node37"><a xlink:href="file:./labels.html#36" xlink:title="clash" target="_blank">
<ellipse fill="none" stroke="black" cx="643.88" cy="-446.2" rx="30.76" ry="18"/>
<text text-anchor="middle" x="643.88" y="-442" font-family="Times,serif" font-size="14.00">clash</text>
</a>
</g>
</g>
<!-- 35&#45;&gt;36 -->
<g id="edge37" class="edge">
<title>35&#45;&gt;36</title>
<path fill="none" stroke="black" d="M645.48,-516.85C645.2,-504.72 644.82,-488.22 644.5,-474.32"/>
<polygon fill="black" stroke="black" points="648,-474.23 644.27,-464.31 641,-474.39 648,-474.23"/>
</g>
<!-- 38 -->
<g id="node39" class="node">
<title>38</title>
<g id="a_node39"><a xlink:href="file:./labels.html#38" xlink:title="z7" target="_blank">
<ellipse fill="none" stroke="black" cx="719.88" cy="-446.2" rx="27" ry="18"/>
<text text-anchor="middle" x="719.88" y="-442" font-family="Times,serif" font-size="14.00">z7</text>
</a>
</g>
</g>
<!-- 37&#45;&gt;38 -->
<g id="edge38" class="edge">
<title>37&#45;&gt;38</title>
<path fill="none" stroke="black" d="M719.88,-516.85C719.88,-504.72 719.88,-488.22 719.88,-474.32"/>
<polygon fill="black" stroke="black" points="723.38,-474.31 719.88,-464.31 716.38,-474.31 723.38,-474.31"/>
<text text-anchor="middle" x="726.88" y="-486.4" font-family="Times,serif" font-size="14.00">⊥</text>
</g>
<!-- 40 -->
<g id="node41" class="node">
<title>40</title>
<g id="a_node41"><a xlink:href="file:./labels.html#40" xlink:title="z7" target="_blank">
<ellipse fill="none" stroke="black" cx="792.88" cy="-446.2" rx="27" ry="18"/>
<text text-anchor="middle" x="792.88" y="-442" font-family="Times,serif" font-size="14.00">z7</text>
</a>
</g>
</g>
<!-- 37&#45;&gt;40 -->
<g id="edge39" class="edge">
<title>37&#45;&gt;40</title>
<path fill="none" stroke="black" d="M732.59,-518.88C743.9,-505.44 760.6,-485.58 773.55,-470.18"/>
<polygon fill="black" stroke="black" points="776.55,-472.05 780.31,-462.15 771.19,-467.55 776.55,-472.05"/>
<text text-anchor="middle" x="834.25" y="-486.4" font-family="Times,serif" font-size="14.00">∀componenteDi.Veicolo</text>
</g>
<!-- 39 -->
<g id="node40" class="node">
<title>39</title>
<g id="a_node40"><a xlink:href="file:./labels.html#39" xlink:title="clash" target="_blank">
<ellipse fill="none" stroke="black" cx="718.88" cy="-357.4" rx="30.76" ry="18"/>
<text text-anchor="middle" x="718.88" y="-353.2" font-family="Times,serif" font-size="14.00">clash</text>
</a>
</g>
</g>
<!-- 38&#45;&gt;39 -->
<g id="edge40" class="edge">
<title>38&#45;&gt;39</title>
<path fill="none" stroke="black" d="M719.68,-428.05C719.54,-415.92 719.35,-399.42 719.19,-385.52"/>
<polygon fill="black" stroke="black" points="722.69,-385.47 719.07,-375.51 715.69,-385.55 722.69,-385.47"/>
</g>
<!-- 41 -->
<g id="node42" class="node">
<title>41</title>
<g id="a_node42"><a xlink:href="file:./labels.html#41" xlink:title="z8" target="_blank">
<ellipse fill="none" stroke="black" cx="794.88" cy="-357.4" rx="27" ry="18"/>
<text text-anchor="middle" x="794.88" y="-353.2" font-family="Times,serif" font-size="14.00">z8</text>
</a>
</g>
</g>
<!-- 40&#45;&gt;41 -->
<g id="edge41" class="edge">
<title>40&#45;&gt;41</title>
<path fill="none" stroke="black" d="M793.27,-428.05C793.55,-415.92 793.93,-399.42 794.25,-385.52"/>
<polygon fill="black" stroke="black" points="797.75,-385.59 794.48,-375.51 790.75,-385.43 797.75,-385.59"/>
<text text-anchor="middle" x="837.26" y="-397.6" font-family="Times,serif" font-size="14.00">haComponente</text>
</g>
<!-- 42 -->
<g id="node43" class="node">
<title>42</title>
<g id="a_node43"><a xlink:href="file:./labels.html#42" xlink:title="z8" target="_blank">
<ellipse fill="none" stroke="black" cx="761.88" cy="-268.6" rx="27" ry="18"/>
<text text-anchor="middle" x="761.88" y="-264.4" font-family="Times,serif" font-size="14.00">z8</text>
</a>
</g>
</g>
<!-- 41&#45;&gt;42 -->
<g id="edge42" class="edge">
<title>41&#45;&gt;42</title>
<path fill="none" stroke="black" d="M788.51,-339.66C783.81,-327.3 777.32,-310.21 771.92,-296.01"/>
<polygon fill="black" stroke="black" points="775.05,-294.39 768.22,-286.28 768.5,-296.88 775.05,-294.39"/>
<text text-anchor="middle" x="788.88" y="-308.8" font-family="Times,serif" font-size="14.00">⊥</text>
</g>
<!-- 44 -->
<g id="node45" class="node">
<title>44</title>
<g id="a_node45"><a xlink:href="file:./labels.html#44" xlink:title="z8" target="_blank">
<ellipse fill="none" stroke="black" cx="835.88" cy="-268.6" rx="27" ry="18"/>
<text text-anchor="middle" x="835.88" y="-264.4" font-family="Times,serif" font-size="14.00">z8</text>
</a>
</g>
</g>
<!-- 41&#45;&gt;44 -->
<g id="edge43" class="edge">
<title>41&#45;&gt;44</title>
<path fill="none" stroke="black" d="M802.59,-340.07C808.51,-327.54 816.79,-310 823.62,-295.56"/>
<polygon fill="black" stroke="black" points="826.95,-296.69 828.06,-286.15 820.63,-293.7 826.95,-296.69"/>
<text text-anchor="middle" x="905.03" y="-308.8" font-family="Times,serif" font-size="14.00">∀haComponente.Componente</text>
</g>
<!-- 43 -->
<g id="node44" class="node">
<title>43</title>
<g id="a_node44"><a xlink:href="file:./labels.html#43" xlink:title="clash" target="_blank">
<ellipse fill="none" stroke="black" cx="759.88" cy="-179.8" rx="30.76" ry="18"/>
<text text-anchor="middle" x="759.88" y="-175.6" font-family="Times,serif" font-size="14.00">clash</text>
</a>
</g>
</g>
<!-- 42&#45;&gt;43 -->
<g id="edge44" class="edge">
<title>42&#45;&gt;43</title>
<path fill="none" stroke="black" d="M761.48,-250.45C761.2,-238.32 760.82,-221.82 760.5,-207.92"/>
<polygon fill="black" stroke="black" points="764,-207.83 760.27,-197.91 757,-207.99 764,-207.83"/>
</g>
<!-- 45 -->
<g id="node46" class="node">
<title>45</title>
<g id="a_node46"><a xlink:href="file:./labels.html#45" xlink:title="z8" target="_blank">
<ellipse fill="none" stroke="black" cx="835.88" cy="-179.8" rx="27" ry="18"/>
<text text-anchor="middle" x="835.88" y="-175.6" font-family="Times,serif" font-size="14.00">z8</text>
</a>
</g>
</g>
<!-- 44&#45;&gt;45 -->
<g id="edge45" class="edge">
<title>44&#45;&gt;45</title>
<path fill="none" stroke="black" d="M835.88,-250.45C835.88,-238.32 835.88,-221.82 835.88,-207.92"/>
<polygon fill="black" stroke="black" points="839.38,-207.91 835.88,-197.91 832.38,-207.91 839.38,-207.91"/>
<text text-anchor="middle" x="842.88" y="-220" font-family="Times,serif" font-size="14.00">⊥</text>
</g>
<!-- 47 -->
<g id="node48" class="node">
<title>47</title>
<g id="a_node48"><a xlink:href="file:./labels.html#47" xlink:title="z8" target="_blank">
<ellipse fill="none" stroke="black" cx="909.88" cy="-179.8" rx="27" ry="18"/>
<text text-anchor="middle" x="909.88" y="-175.6" font-family="Times,serif" font-size="14.00">z8</text>
</a>
</g>
</g>
<!-- 44&#45;&gt;47 -->
<g id="edge46" class="edge">
<title>44&#45;&gt;47</title>
<path fill="none" stroke="black" d="M848.77,-252.48C860.23,-239.04 877.15,-219.18 890.29,-203.78"/>
<polygon fill="black" stroke="black" points="893.31,-205.63 897.14,-195.75 887.98,-201.09 893.31,-205.63"/>
<text text-anchor="middle" x="949.25" y="-220" font-family="Times,serif" font-size="14.00">∀componenteDi.Veicolo</text>
</g>
<!-- 46 -->
<g id="node47" class="node">
<title>46</title>
<g id="a_node47"><a xlink:href="file:./labels.html#46" xlink:title="clash" target="_blank">
<ellipse fill="none" stroke="black" cx="835.88" cy="-91" rx="30.76" ry="18"/>
<text text-anchor="middle" x="835.88" y="-86.8" font-family="Times,serif" font-size="14.00">clash</text>
</a>
</g>
</g>
<!-- 45&#45;&gt;46 -->
<g id="edge47" class="edge">
<title>45&#45;&gt;46</title>
<path fill="none" stroke="black" d="M835.88,-161.65C835.88,-149.52 835.88,-133.02 835.88,-119.12"/>
<polygon fill="black" stroke="black" points="839.38,-119.11 835.88,-109.11 832.38,-119.11 839.38,-119.11"/>
</g>
<!-- 48 -->
<g id="node49" class="node">
<title>48</title>
<g id="a_node49"><a xlink:href="file:./labels.html#48" xlink:title="z9" target="_blank">
<ellipse fill="none" stroke="black" cx="911.88" cy="-91" rx="27" ry="18"/>
<text text-anchor="middle" x="911.88" y="-86.8" font-family="Times,serif" font-size="14.00">z9</text>
</a>
</g>
</g>
<!-- 47&#45;&gt;48 -->
<g id="edge48" class="edge">
<title>47&#45;&gt;48</title>
<path fill="none" stroke="black" d="M910.27,-161.65C910.55,-149.52 910.93,-133.02 911.25,-119.12"/>
<polygon fill="black" stroke="black" points="914.75,-119.19 911.48,-109.11 907.75,-119.03 914.75,-119.19"/>
<text text-anchor="middle" x="952.09" y="-131.2" font-family="Times,serif" font-size="14.00">componenteDi</text>
</g>
<!-- 49 -->
<g id="node50" class="node">
<title>49</title>
<g id="a_node50"><a xlink:href="file:./labels.html#49" xlink:title="Blocking" target="_blank">
<ellipse fill="none" stroke="black" cx="911.88" cy="-18" rx="46.39" ry="18"/>
<text text-anchor="middle" x="911.88" y="-13.8" font-family="Times,serif" font-size="14.00">Blocking</text>
</a>
</g>
</g>
<!-- 48&#45;&gt;49 -->
<g id="edge49" class="edge">
<title>48&#45;&gt;49</title>
<path fill="none" stroke="black" d="M911.88,-72.81C911.88,-64.79 911.88,-55.05 911.88,-46.07"/>
<polygon fill="black" stroke="black" points="915.38,-46.03 911.88,-36.03 908.38,-46.03 915.38,-46.03"/>
</g>
</g>
</svg>
